<?xml version="1.0" encoding="UTF-8" standalone="no"?>
<!-- Created with Inkscape (http://www.inkscape.org/) -->

<svg
   version="1.1"
   id="svg1"
   width="348.26816"
   height="241.42915"
   viewBox="0 0 348.26816 241.42916"
   xmlns="http://www.w3.org/2000/svg"
   xmlns:svg="http://www.w3.org/2000/svg">
  <defs
     id="defs1">
    <clipPath
       clipPathUnits="userSpaceOnUse"
       id="clipPath556">
      <path
         d="M 0,206.516 H 333 V 0 H 0 Z"
         transform="translate(-123.8232,-121.1768)"
         id="path556" />
    </clipPath>
    <clipPath
       clipPathUnits="userSpaceOnUse"
       id="clipPath558">
      <path
         d="M 0,206.516 H 333 V 0 H 0 Z"
         transform="translate(-139.7026,-101.51861)"
         id="path558" />
    </clipPath>
    <clipPath
       clipPathUnits="userSpaceOnUse"
       id="clipPath560">
      <path
         d="M 0,206.516 H 333 V 0 H 0 Z"
         transform="translate(-168.0195,-131.7578)"
         id="path560" />
    </clipPath>
    <clipPath
       clipPathUnits="userSpaceOnUse"
       id="clipPath562">
      <path
         d="M 0,206.516 H 333 V 0 H 0 Z"
         transform="translate(-211.90431,-101.51861)"
         id="path562" />
    </clipPath>
    <clipPath
       clipPathUnits="userSpaceOnUse"
       id="clipPath564">
      <path
         d="M 0,206.516 H 333 V 0 H 0 Z"
         transform="translate(-240.22071,-131.7578)"
         id="path564" />
    </clipPath>
    <clipPath
       clipPathUnits="userSpaceOnUse"
       id="clipPath566">
      <path
         d="M 0,206.516 H 333 V 0 H 0 Z"
         transform="translate(-284.1055,-101.51861)"
         id="path566" />
    </clipPath>
    <clipPath
       clipPathUnits="userSpaceOnUse"
       id="clipPath568">
      <path
         d="M 0,206.516 H 333 V 0 H 0 Z"
         transform="translate(-157.6387,-164.2339)"
         id="path568" />
    </clipPath>
    <clipPath
       clipPathUnits="userSpaceOnUse"
       id="clipPath570">
      <path
         d="M 0,206.516 H 333 V 0 H 0 Z"
         transform="translate(-157.55661,-164.2163)"
         id="path570" />
    </clipPath>
    <clipPath
       clipPathUnits="userSpaceOnUse"
       id="clipPath572">
      <path
         d="M 0,206.516 H 333 V 0 H 0 Z"
         transform="translate(-126.4546,-67.418002)"
         id="path572" />
    </clipPath>
    <clipPath
       clipPathUnits="userSpaceOnUse"
       id="clipPath574">
      <path
         d="M 0,206.516 H 333 V 0 H 0 Z"
         transform="translate(-191.26761,-71.443402)"
         id="path574" />
    </clipPath>
    <clipPath
       clipPathUnits="userSpaceOnUse"
       id="clipPath576">
      <path
         d="M 0,206.516 H 333 V 0 H 0 Z"
         transform="translate(-229.70121,-63.269504)"
         id="path576" />
    </clipPath>
  </defs>
  <g
     id="g663"
     style="display:inline"
     transform="translate(-48.798241,-11.748163)">
    <g
       id="g664"
       style="display:inline">
      <path
         id="path34-4"
         d="m 145.60547,235.45703 -1.89063,7.95312 -6.90625,-1.64062 4.78126,-20.0625 12.89063,3.06247 c 2.36328,0.5625 4.22265,1.20313 5.57812,1.92188 1.35157,0.71875 2.37891,1.69531 3.07813,2.92187 0.70703,1.23047 0.91406,2.46485 0.625,3.70313 -0.57422,2.41797 -2.6836,3.75 -6.32813,4 l 3.29688,10.14062 -7.57813,-1.79687 -2.60938,-9.03123 z m 2.03124,-8.54688 -1.21874,5.10938 4.21875,1.00001 c 1.375,0.33594 2.39062,0.51172 3.04687,0.53125 0.65625,0.0117 1.28125,-0.14844 1.875,-0.48437 0.59375,-0.33203 0.96094,-0.79688 1.10938,-1.39063 0.12504,-0.55077 0,-1.10937 -0.375,-1.67187 -0.375,-0.5625 -0.84375,-0.96094 -1.40625,-1.20313 -0.55469,-0.23828 -1.61719,-0.54687 -3.1875,-0.92187 z m 0,0"
         style="display:inline;fill:#ffffff;fill-opacity:1;fill-rule:nonzero;stroke:none;stroke-width:1.10278"
         aria-label="R" />
      <path
         id="path37-6"
         d="m 177.29687,234.17188 c 3.375,0.48048 5.89453,1.60937 7.5625,3.39062 1.67578,1.77344 2.35156,3.78907 2.03125,6.04688 -0.32427,2.24218 -1.57422,3.96484 -3.75,5.17187 -2.16797,1.20703 -4.88281,1.57813 -8.14062,1.10938 -3.14844,-0.44922 -5.5586,-1.54297 -7.23438,-3.28125 -1.66797,-1.75 -2.33984,-3.78125 -2.01562,-6.09375 0.23828,-1.60156 0.86328,-2.90625 1.875,-3.90625 1.00781,-1.00781 2.30468,-1.75 3.89062,-2.21875 1.58203,-0.47656 3.50781,-0.55078 5.78125,-0.21875 z m -0.23437,2.92187 c -1.24219,-0.17581 -2.21875,0.0234 -2.9375,0.59375 -0.71094,0.5625 -1.20313,1.82032 -1.48438,3.76563 -0.26172,1.78125 -0.15234,3.10547 0.32813,3.96875 0.48828,0.86719 1.36718,1.39062 2.64062,1.57812 1.10156,0.15625 2.04688,-0.0469 2.82813,-0.60937 0.78125,-0.57031 1.30468,-1.78906 1.57812,-3.65625 0.28124,-1.97657 0.17188,-3.36719 -0.32812,-4.17188 -0.5,-0.80078 -1.375,-1.28906 -2.625,-1.46875 z m 0,0"
         style="display:inline;fill:#ffffff;fill-opacity:1;fill-rule:nonzero;stroke:none;stroke-width:1.10279"
         aria-label="o" />
      <path
         id="path40-8"
         d="m 198.82032,231.44141 -0.46875,7.26562 c 1.26953,-1.41406 3.15625,-2.04687 5.65625,-1.89062 2.55078,0.168 4.52344,1.00781 5.92187,2.51562 1.39453,1.5 2.01563,3.48438 1.85938,5.95313 -0.14839,2.375 -1.03125,4.24218 -2.65625,5.59375 -1.61719,1.35156 -3.86719,1.9414 -6.75,1.76562 -1.5,-0.0937 -2.71094,-0.35156 -3.625,-0.76562 -0.91797,-0.40625 -1.82032,-1.17578 -2.70313,-2.3125 -0.4375,0.27343 -0.97656,1.02343 -1.60937,2.25 l -3.5,-0.21875 1.31249,-20.57813 z m -0.92188,14.54687 c -0.0742,1.07422 0.19532,1.90235 0.8125,2.48438 0.625,0.57422 1.39063,0.88672 2.29688,0.9375 1.08203,0.0742 2,-0.19141 2.75,-0.79688 0.75781,-0.61328 1.19531,-1.86719 1.3125,-3.76562 0.1328,-2.16407 -0.14844,-3.54688 -0.84375,-4.14063 -0.6875,-0.60156 -1.49609,-0.9375 -2.42188,-1 -1.0625,-0.0625 -1.93359,0.19922 -2.60937,0.78125 -0.67969,0.57422 -1.05469,1.4336 -1.125,2.57813 z m 0,0"
         style="display:inline;fill:#ffffff;fill-opacity:1;fill-rule:nonzero;stroke:none;stroke-width:1.10278"
         aria-label="b" />
      <path
         id="path43-8"
         d="m 225.53516,237.28516 c 3.40625,-0.0312 6.06641,0.70312 7.98437,2.20312 1.92579,1.5 2.90625,3.39063 2.9375,5.67188 0.0195,2.26171 -0.95312,4.15625 -2.92187,5.6875 -1.96094,1.52343 -4.58594,2.29687 -7.875,2.32812 -3.17969,0.0391 -5.73047,-0.67187 -7.65625,-2.14062 -1.91797,-1.46875 -2.89063,-3.36719 -2.92188,-5.70313 -0.0117,-1.625 0.40625,-3.00781 1.25,-4.15625 0.84375,-1.14453 2.01563,-2.07031 3.51563,-2.78125 1.5,-0.70703 3.39453,-1.07812 5.6875,-1.10937 z m 0.20312,2.9375 c -1.25,0.0234 -2.1875,0.36718 -2.8125,1.03125 -0.625,0.66796 -0.92968,1.98437 -0.90625,3.95312 0.0195,1.80469 0.33594,3.09375 0.95313,3.875 0.61328,0.78125 1.5625,1.16406 2.84375,1.14063 1.11328,-0.008 2.01562,-0.35157 2.70312,-1.03125 0.6875,-0.67579 1.01954,-1.95704 1,-3.84375 -0.0313,-2 -0.35546,-3.35157 -0.96875,-4.0625 -0.61718,-0.71875 -1.55468,-1.07032 -2.8125,-1.0625 z m 0,0"
         style="display:inline;fill:#ffffff;fill-opacity:1;fill-rule:nonzero;stroke:none;stroke-width:1.10278"
         aria-label="o" />
      <path
         id="path46-1"
         d="m 247.97266,240.10156 0.46875,6.4375 c 0.0625,0.8125 0.28125,1.34375 0.65625,1.59375 0.375,0.24219 1.21875,0.30859 2.53125,0.20312 0.60156,-0.0391 1.28906,-0.10937 2.0625,-0.20312 l 0.25005,3.32812 c -1.87505,0.35547 -3.23443,0.5625 -4.07818,0.625 -2.73046,0.19922 -4.69921,-0.0195 -5.90625,-0.65625 -1.19921,-0.63281 -1.86718,-1.89062 -2,-3.76562 l -0.51562,-7.09375 -3.53125,0.26558 -0.26563,-3.48437 3.90625,-0.28124 0.20313,-4.54688 5.60937,-0.71874 0.34376,4.81249 4.8125,-0.35941 0.26567,3.48437 z m 0,0"
         style="display:inline;fill:#ffffff;fill-opacity:1;fill-rule:nonzero;stroke:none;stroke-width:1.10278"
         aria-label="t" />
      <path
         id="path49-3"
         d="m 262.60937,235.0625 1.79688,15.15625 L 257.875,251 256.07812,235.84375 Z m -0.67187,-5.75 0.51563,4.46875 -6.53125,0.78127 -0.51562,-4.46875 z m 0,0"
         style="display:inline;fill:#ffffff;fill-opacity:1;fill-rule:nonzero;stroke:none;stroke-width:1.10278"
         aria-label="i" />
      <path
         id="path51-8"
         d="m 288.82032,240.39453 c 0.0625,1.82422 -0.71094,3.44531 -2.3125,4.85938 -1.60547,1.41797 -3.83594,2.38281 -6.6875,2.89062 -3.10547,0.55469 -5.75782,0.30469 -7.95313,-0.75 -2.19922,-1.05078 -3.51172,-2.75391 -3.9375,-5.10937 -0.41406,-2.35157 0.23828,-4.4375 1.96875,-6.25 1.73828,-1.8125 4.26953,-3.01954 7.59375,-3.625 2.67578,-0.46878 4.99219,-0.3125 6.95313,0.46875 1.95703,0.77343 3.17968,1.97656 3.67187,3.60937 l -6,1.29688 c -0.53125,-1.75782 -1.83984,-2.45703 -3.92187,-2.09375 -2.5625,0.46098 -3.58985,2.13281 -3.07813,5.01562 0.34376,1.91797 0.91406,3.07031 1.71875,3.45313 0.8125,0.38672 1.73438,0.48437 2.76563,0.29687 1.98828,-0.35156 3.03125,-1.42969 3.125,-3.23437 z m 0,0"
         style="display:inline;fill:#ffffff;fill-opacity:1;fill-rule:nonzero;stroke:none;stroke-width:1.10278"
         aria-label="c" />
      <path
         id="path54-0"
         d="m 307.47656,229.50782 -4.42187,2.0625 c -0.88672,-1.17579 -2.46485,-1.46875 -4.73438,-0.875 -2.13671,0.5625 -3.08984,1.28906 -2.85937,2.17187 0.0937,0.34375 0.36328,0.57031 0.8125,0.67188 0.44531,0.10546 1.51562,0.0234 3.20312,-0.25 2.53125,-0.4375 4.42188,-0.66016 5.67188,-0.67188 1.25781,-0.0195 2.32031,0.22656 3.1875,0.73438 0.875,0.51171 1.44531,1.27343 1.71875,2.28125 0.39452,1.53125 -0.125,2.99609 -1.5625,4.39062 -1.4375,1.38672 -3.67188,2.48047 -6.70313,3.28125 -5.49219,1.4375 -9.15234,0.84375 -10.98437,-1.78125 l 5.21875,-1.95312 c 0.78125,1.21875 2.54687,1.46875 5.29687,0.75 1.0625,-0.28126 1.92188,-0.64454 2.57813,-1.09375 0.65625,-0.45704 0.92578,-0.90625 0.8125,-1.34375 -0.17969,-0.6875 -1.08594,-0.87891 -2.71875,-0.57813 -4.46875,0.78125 -7.49219,0.96484 -9.0625,0.54688 -1.57031,-0.41407 -2.53907,-1.31641 -2.90625,-2.70313 -0.36328,-1.39453 0.13281,-2.75781 1.48437,-4.09375 1.34375,-1.33203 3.45703,-2.3789 6.34375,-3.14062 2.28125,-0.59376 4.17969,-0.75782 5.70313,-0.5 1.53125,0.25 2.83593,0.94921 3.92187,2.09375 z m 0,0"
         style="display:inline;fill:#ffffff;fill-opacity:1;fill-rule:nonzero;stroke:none;stroke-width:1.10278"
         aria-label="s" />
      <path
         id="path124-4"
         d="m 70.191407,60.902344 6.749988,8.734384 -2.546875,1.96875 c -0.656239,-0.468759 -1.406238,-0.882822 -2.249988,-1.250009 -0.60547,2.730469 -2.230469,5.109375 -4.875,7.140625 -3.105469,2.40625 -6.109376,3.523437 -9.015626,3.34375 -2.894531,-0.1875 -5.273437,-1.488281 -7.140625,-3.90625 -2.019528,-2.601565 -2.71875,-5.40625 -2.09375,-8.40625 0.625,-3.007813 2.523438,-5.738281 5.6875,-8.1875 2.664042,-2.050809 5.207032,-3.195312 7.625,-3.4375 2.414064,-0.238281 4.460938,0.351563 6.140626,1.765624 l -4.921875,4.593751 c -1.968751,-1.644531 -4.109376,-1.578125 -6.421875,0.203125 -1.507812,1.16797 -2.285157,2.523437 -2.328126,4.0625 -0.05078,1.53125 0.593751,3.167969 1.937501,4.90625 1.289062,1.667969 2.691406,2.621094 4.203124,2.859375 1.519532,0.242187 3.054688,-0.238282 4.609376,-1.4375 1.007814,-0.781248 1.734374,-1.691406 2.171875,-2.734376 0.445312,-1.050781 0.289062,-2.066406 -0.46875,-3.046874 l -4.500003,3.468746 -2.359358,-3.062514 z m 0,0"
         style="display:inline;fill:#ffffff;fill-opacity:1;fill-rule:nonzero;stroke:none;stroke-width:1.10278"
         aria-label="G" />
      <path
         id="path127-8"
         d="m 86.589844,64.308594 -5.515626,3.1875 -7.640626,-13.218749 5.218741,-3.01564 1.421874,2.46875 c -0.25,-2.300781 0.613281,-4.019531 2.593749,-5.156249 0.281245,-0.164072 0.628904,-0.351566 1.046876,-0.5625 l 2.218749,3.843751 c -1.156249,0.667968 -1.992186,1.308593 -2.499999,1.921874 -0.5,0.617188 -0.777344,1.359375 -0.828125,2.234375 -0.04297,0.867188 0.25,1.835938 0.875,2.90625 z m 0,0"
         style="display:inline;fill:#ffffff;fill-opacity:1;fill-rule:nonzero;stroke:none;stroke-width:1.10278"
         aria-label="r" />
      <path
         id="path130-8"
         d="m 109.66016,45.414062 -13.078128,5.921875 c 0.101563,0.261719 0.195312,0.480469 0.28125,0.65625 0.445317,0.999998 1.171875,1.578125 2.171875,1.734375 1.000003,0.148438 2.035153,-0.02344 3.109373,-0.515625 2,-0.90625 2.86328,-2.175781 2.59375,-3.8125 l 5.57813,-2.1875 c -0.0742,3.898437 -2.42969,6.898437 -7.0625,9 -2.02344,0.917969 -3.867191,1.421875 -5.531253,1.515625 -1.667969,0.08594 -3.203125,-0.195312 -4.609375,-0.84375 -1.394532,-0.644531 -2.425782,-1.710937 -3.09375,-3.203125 -1.007809,-2.218751 -0.898438,-4.421875 0.328125,-6.609375 1.230469,-2.195313 3.289062,-3.953125 6.1875,-5.265625 2.613291,-1.175761 5.140623,-1.554688 7.578123,-1.140625 2.44531,0.40625 4.29688,1.992188 5.54688,4.75 z m -14.171878,3.5625 7.218748,-3.28126 c -1.05469,-1.820312 -2.63281,-2.257813 -4.734377,-1.3125 -2.250019,1.023398 -3.078126,2.554688 -2.484376,4.59375 z m 0,0"
         style="display:inline;fill:#ffffff;fill-opacity:1;fill-rule:nonzero;stroke:none;stroke-width:1.10278"
         aria-label="e" />
      <path
         id="path133-0"
         d="m 134.41406,44.226562 -6.0625,2.03125 c -0.38672,-0.507812 -0.74219,-1.234375 -1.0625,-2.171875 -0.69922,1.386719 -1.52344,2.429688 -2.46875,3.125 -0.94922,0.699219 -2.08984,1.265626 -3.42188,1.703125 -1.98046,0.667969 -3.70312,0.839844 -5.17187,0.515626 -1.46875,-0.320313 -2.41406,-1.101563 -2.82813,-2.343751 -0.30078,-0.906249 -0.22265,-1.859374 0.23438,-2.859375 0.45703,-1.007812 1.39844,-1.992187 2.82812,-2.953124 1.42579,-0.957032 4.19141,-2.242188 8.29688,-3.859375 l -0.28128,-0.828114 c -0.46879,-1.414052 -1.73047,-1.78125 -3.78125,-1.09375 -2.1875,0.742198 -3.17188,1.859375 -2.95313,3.359375 l -5.89062,1.546875 c -0.17579,-1.757813 0.57031,-3.300781 2.23437,-4.625 1.67578,-1.332031 3.71875,-2.398438 6.125,-3.203125 1.42578,-0.476563 2.8125,-0.816406 4.15625,-1.015625 1.35156,-0.207032 2.46094,-0.195312 3.32813,0.03125 0.86328,0.218751 1.50781,0.54297 1.93749,0.968751 0.42579,0.429688 0.85157,1.277344 1.28126,2.546875 l 2.20312,6.5625 c 0.42581,1.261708 0.85938,2.117187 1.29688,2.5625 z m -8.95313,-4.71875 c -4.26171,1.773438 -6.14062,3.414063 -5.64062,4.921876 0.17578,0.499998 0.55469,0.855468 1.14062,1.062499 0.58204,0.210938 1.29688,0.171875 2.14063,-0.109375 1.10156,-0.375 1.92187,-0.992187 2.45312,-1.859375 0.53907,-0.874999 0.65625,-1.769531 0.34375,-2.687499 z m 0,0"
         style="display:inline;fill:#ffffff;fill-opacity:1;fill-rule:nonzero;stroke:none;stroke-width:1.10278"
         aria-label="a" />
      <path
         id="path136-8"
         d="m 143.19922,29.851563 1.59375,6.265624 c 0.19531,0.78125 0.5,1.261719 0.90625,1.4375 0.41406,0.179688 1.25781,0.105469 2.53125,-0.21875 0.58203,-0.156251 1.2539,-0.347656 2.01562,-0.578125 l 0.82815,3.23437 c -1.79299,0.687505 -3.10159,1.136724 -3.9219,1.343755 -2.65625,0.667969 -4.63281,0.796875 -5.92187,0.390625 -1.28125,-0.40625 -2.15625,-1.523437 -2.625,-3.359374 l -1.75001,-6.890625 -3.4375,0.875 -0.85937,-3.390625 3.79687,-0.968755 -0.59375,-4.500001 5.39063,-1.6875 1.1875,4.656251 4.67188,-1.187485 0.8594,3.39062 z m 0,0"
         style="display:inline;fill:#ffffff;fill-opacity:1;fill-rule:nonzero;stroke:none;stroke-width:1.10278"
         aria-label="t" />
      <path
         id="path139-9"
         d="m 172.27734,28.933594 -14.125,2.609379 c 0.0391,0.273437 0.0781,0.507812 0.10938,0.703125 0.19531,1.07422 0.75781,1.804687 1.6875,2.1875 0.9375,0.386718 1.98828,0.476562 3.15625,0.265625 2.15625,-0.394531 3.30078,-1.421875 3.4375,-3.078125 l 5.92187,-0.78125 c -0.99218,3.773434 -3.99218,6.117184 -9,7.031246 -2.1875,0.40625 -4.10546,0.453125 -5.75,0.140625 -1.63671,-0.320312 -3.05859,-0.96875 -4.26562,-1.9375 -1.19922,-0.96875 -1.94922,-2.253906 -2.25,-3.859375 -0.4375,-2.382813 0.20312,-4.488282 1.92187,-6.3125 1.72657,-1.832032 4.15625,-3.039063 7.28125,-3.625 2.82032,-0.519531 5.36719,-0.285156 7.64063,0.703125 2.26953,0.992188 3.67969,2.976563 4.23437,5.953125 z m -14.60937,0.04687 7.79687,-1.4375 c -0.59375,-2.039063 -2.02734,-2.847656 -4.29687,-2.421875 -2.4297,0.449178 -3.59375,1.734375 -3.5,3.859375 z m 0,0"
         style="display:inline;fill:#ffffff;fill-opacity:1;fill-rule:nonzero;stroke:none;stroke-width:1.10278"
         aria-label="e" />
      <path
         id="path142-9"
         d="m 183.66797,34.546875 -6.32813,0.75 -1.8125,-15.156249 5.98438,-0.718718 0.32813,2.828124 c 0.66406,-2.207031 2.13281,-3.445312 4.40625,-3.71875 0.32031,-0.03906 0.71875,-0.07031 1.1875,-0.09375 l 0.51561,4.406252 c -1.32421,0.156272 -2.33984,0.421874 -3.04687,0.796874 -0.69922,0.367188 -1.24219,0.9375 -1.625,1.71875 -0.38672,0.78125 -0.5,1.789063 -0.34375,3.015625 z m 0,0"
         style="display:inline;fill:#ffffff;fill-opacity:1;fill-rule:nonzero;stroke:none;stroke-width:1.10278"
         aria-label="r" />
      <path
         id="path145-2"
         d=""
         style="display:inline;fill:#ffffff;fill-opacity:1;fill-rule:nonzero;stroke:none;stroke-width:1.10278"
         aria-label=" " />
      <path
         id="path146-2"
         d="m 211.01562,24.316406 0.14063,8.171875 -7.10937,0.140625 -0.37501,-20.625 13.25,-0.250003 c 2.4375,-0.03906 4.39844,0.121093 5.89063,0.484375 1.5,0.355469 2.73828,1.042969 3.71875,2.062499 0.98828,1.023438 1.49218,2.16797 1.51562,3.437501 0.0508,2.480468 -1.65625,4.292968 -5.125,5.4375 l 5.71875,9 -7.79687,0.140625 -4.76563,-8.078125 z m -0.15625,-8.781249 0.0937,5.249999 4.32813,-0.07813 c 1.41406,-0.01952 2.4414,-0.101567 3.07812,-0.25 0.63281,-0.144531 1.19531,-0.457031 1.6875,-0.937499 0.48828,-0.476563 0.72656,-1.019532 0.71875,-1.625 -0.0117,-0.570314 -0.27344,-1.078125 -0.78125,-1.515626 -0.5,-0.445313 -1.04687,-0.71875 -1.64062,-0.812499 -0.59375,-0.09375 -1.69922,-0.125001 -3.3125,-0.09375 z m 0,0"
         style="display:inline;fill:#ffffff;fill-opacity:1;fill-rule:nonzero;stroke:none;stroke-width:1.10278"
         aria-label="R" />
      <path
         id="path149-2"
         d="m 242.48047,17.378906 c 3.39453,0.199191 6,1.109376 7.8125,2.734375 1.82031,1.625 2.66406,3.578125 2.53125,5.859375 -0.12496,2.250002 -1.22656,4.074219 -3.29688,5.46875 -2.0625,1.382813 -4.73437,1.976563 -8.01562,1.78125 -3.17969,-0.179687 -5.67969,-1.066406 -7.5,-2.671875 -1.8125,-1.601562 -2.64844,-3.566406 -2.5,-5.890625 0.0937,-1.625 0.59765,-2.976562 1.51562,-4.0625 0.92579,-1.082031 2.16016,-1.921874 3.70313,-2.515625 1.53906,-0.601562 3.45703,-0.835937 5.75,-0.703125 z m 0,2.921875 c -1.25,-0.07035 -2.21094,0.203125 -2.875,0.828125 -0.66797,0.625 -1.05859,1.921875 -1.17188,3.890625 -0.10546,1.804688 0.11719,3.117188 0.67188,3.9375 0.5625,0.8125 1.48437,1.257813 2.76562,1.328125 1.10157,0.0625 2.01954,-0.21875 2.75,-0.84375 0.72657,-0.625 1.14844,-1.878906 1.26563,-3.765625 0.11332,-1.999997 -0.11719,-3.374999 -0.6875,-4.125 -0.5625,-0.757812 -1.46875,-1.175781 -2.71875,-1.25 z m 0,0"
         style="display:inline;fill:#ffffff;fill-opacity:1;fill-rule:nonzero;stroke:none;stroke-width:1.10278"
         aria-label="o" />
      <path
         id="path152-9"
         d="m 276.34375,30.816406 c -0.49219,1.773437 -1.71875,3.082031 -3.6875,3.9375 -1.96094,0.863281 -4.375,1.109375 -7.25,0.734375 -3.125,-0.40625 -5.57813,-1.445313 -7.35938,-3.109375 -1.77344,-1.664063 -2.5,-3.6875 -2.1875,-6.0625 0.30078,-2.363282 1.55078,-4.148437 3.75,-5.359375 2.20703,-1.21875 4.98828,-1.609375 8.34375,-1.171875 2.69531,0.355474 4.85938,1.203125 6.48438,2.546875 1.63281,1.34375 2.4375,2.859375 2.40625,4.546875 l -6.10938,-0.5625 c 0.0195,-1.832031 -1.01562,-2.890625 -3.10937,-3.171875 -2.58594,-0.332073 -4.0625,0.949219 -4.4375,3.84375 -0.25,1.9375 -0.0469,3.214844 0.60937,3.828125 0.65625,0.605469 1.5,0.976562 2.53125,1.109375 2.01953,0.261719 3.33594,-0.457031 3.95313,-2.15625 z m 0,0"
         style="display:inline;fill:#ffffff;fill-opacity:1;fill-rule:nonzero;stroke:none;stroke-width:1.10279"
         aria-label="c" />
      <path
         id="path155-7"
         d="m 289.47656,18.246094 -1.53124,7.296876 c 1.51953,-1.320312 3.65625,-1.691406 6.40625,-1.109375 1.46875,0.304656 2.67578,0.789063 3.625,1.453125 0.95703,0.667969 1.57812,1.390625 1.85937,2.171876 0.28125,0.773436 0.28125,1.824218 0,3.156249 l -2.07812,9.859375 -6.42188,-1.359375 1.76569,-8.406237 c 0.21871,-1.007821 0.30469,-1.710937 0.26563,-2.109375 -0.043,-0.394532 -0.24219,-0.757812 -0.59376,-1.09375 -0.35546,-0.34375 -0.84374,-0.578124 -1.46874,-0.703125 -0.80469,-0.175771 -1.64844,-0.132812 -2.53125,0.125001 -0.88672,0.261718 -1.48047,1.093749 -1.78125,2.499999 l -1.7657,8.406236 -6.23437,-1.3125 4.25,-20.1875 z m 0,0"
         style="display:inline;fill:#ffffff;fill-opacity:1;fill-rule:nonzero;stroke:none;stroke-width:1.10278"
         aria-label="h" />
      <path
         id="path158-1"
         d="M 323.75,41.515625 310,37.359375 c -0.0859,0.26172 -0.15624,0.484376 -0.21875,0.671875 -0.3125,1.042967 -0.14843,1.953125 0.5,2.734375 0.64453,0.769531 1.53125,1.328125 2.65625,1.671875 2.10157,0.632809 3.59766,0.242187 4.48438,-1.171875 l 5.625,2.03125 c -2.61719,2.882812 -6.35938,3.59375 -11.23438,2.125 -2.125,-0.648438 -3.84375,-1.484375 -5.15625,-2.515625 -1.30468,-1.03125 -2.27343,-2.25 -2.90625,-3.65625 -0.625,-1.40625 -0.70312,-2.894532 -0.23437,-4.46875 0.70703,-2.320314 2.24219,-3.898438 4.60937,-4.734376 2.36328,-0.843749 5.06641,-0.804687 8.10938,0.109376 2.75782,0.835919 4.92187,2.210937 6.48437,4.124999 1.5625,1.91797 1.90625,4.328125 1.03125,7.234376 z m -13,-6.65625 7.57813,2.296862 c 0.40625,-2.070313 -0.49609,-3.441407 -2.70312,-4.109376 -2.3672,-0.718726 -3.99219,-0.113281 -4.875,1.812501 z m 0,0"
         style="display:inline;fill:#ffffff;fill-opacity:1;fill-rule:nonzero;stroke:none;stroke-width:1.10278"
         aria-label="e" />
      <path
         id="path161-8"
         d="m 345.05078,44.937501 -4.78125,-0.984376 c 0,-1.488281 -1.08985,-2.671875 -3.26563,-3.546875 -2.04295,-0.820351 -3.23437,-0.804687 -3.57812,0.04687 -0.13672,0.335938 -0.0586,0.679688 0.23437,1.031251 0.30078,0.355468 1.21094,0.917968 2.73438,1.687499 2.28125,1.179688 3.92578,2.136719 4.9375,2.875 1.01953,0.742188 1.72656,1.574219 2.125,2.5 0.39453,0.925781 0.39453,1.875 0,2.84375 -0.5937,1.457052 -1.88282,2.316406 -3.85938,2.578125 -1.98047,0.257813 -4.42968,-0.195312 -7.34375,-1.359375 -5.26172,-2.125 -7.83984,-4.789062 -7.73437,-8 l 5.32812,1.546875 c -0.0859,1.449219 1.19141,2.703125 3.82813,3.765625 1.00781,0.414062 1.91015,0.632813 2.70312,0.65625 0.80078,0.03125 1.28516,-0.167968 1.45313,-0.59375 0.26947,-0.656274 -0.34375,-1.351562 -1.84375,-2.078125 -4.04297,-2.050781 -6.57031,-3.710937 -7.57813,-4.984375 -1.01172,-1.269531 -1.25,-2.566406 -0.71875,-3.890625 0.53907,-1.343749 1.75,-2.144531 3.625,-2.40625 1.88282,-0.257812 4.20703,0.167969 6.96875,1.28125 2.18751,0.886693 3.81641,1.886718 4.89063,3 1.07031,1.117188 1.69531,2.460938 1.875,4.031251 z m 0,0"
         style="display:inline;fill:#ffffff;fill-opacity:1;fill-rule:nonzero;stroke:none;stroke-width:1.10278"
         aria-label="s" />
      <path
         id="path164-1"
         d="m 356.80859,50.578125 -2.92187,5.75 c -0.36719,0.718752 -0.45313,1.28125 -0.26563,1.6875 0.1875,0.40625 0.86719,0.90625 2.04688,1.5 0.53125,0.269531 1.16015,0.566406 1.89062,0.890625 l -1.51562,2.984375 c -1.80469,-0.667969 -3.07813,-1.195313 -3.82813,-1.578125 -2.44922,-1.242188 -4.02344,-2.445313 -4.71875,-3.609375 -0.6875,-1.15625 -0.60547,-2.578125 0.25,-4.265625 l 3.21875,-6.328124 -3.15625,-1.609367 1.59375,-3.125 3.5,1.781244 2.5,-3.765625 5.17188,2.28125 -2.17187,4.281253 4.29689,2.187463 -1.59379,3.124979 z m 0,0"
         style="display:inline;fill:#ffffff;fill-opacity:1;fill-rule:nonzero;stroke:none;stroke-width:1.10278"
         aria-label="t" />
      <path
         id="path167-4"
         d="m 378.95703,69.734375 -12.04687,-7.8125 c -0.15625,0.218749 -0.29297,0.414063 -0.40625,0.578125 -0.59375,0.914063 -0.6875,1.832032 -0.28125,2.75 0.40625,0.925781 1.10156,1.710938 2.09375,2.359375 1.84375,1.195316 3.38281,1.242188 4.625,0.140625 l 4.84375,3.5 c -3.32422,2.050781 -7.12109,1.6875 -11.39063,-1.09375 -1.85546,-1.210938 -3.26562,-2.492188 -4.23437,-3.84375 -0.96875,-1.355469 -1.5625,-2.796875 -1.78125,-4.328125 -0.21094,-1.53125 0.12891,-2.984375 1.01562,-4.359375 1.32032,-2.03125 3.23829,-3.117187 5.75,-3.265625 2.50782,-0.144532 5.09766,0.648437 7.76563,2.375 2.41408,1.574196 4.10156,3.5 5.0625,5.78125 0.96875,2.269531 0.62891,4.675781 -1.01563,7.21875 z m -10.64062,-10.015626 6.65625,4.312501 c 0.96875,-1.875 0.48437,-3.441407 -1.45313,-4.703126 -2.07419,-1.343786 -3.80859,-1.210937 -5.20312,0.390625 z m 0,0"
         style="display:inline;fill:#ffffff;fill-opacity:1;fill-rule:nonzero;stroke:none;stroke-width:1.10278"
         aria-label="e" />
      <path
         id="path170-5"
         d="m 382.67578,81.988281 -4.85938,-4.140625 9.90625,-11.609376 4.59375,3.906255 -1.84375,2.156254 c 2.08203,-1 3.98828,-0.757813 5.71875,0.71875 0.25002,0.210921 0.53906,0.480468 0.875,0.812498 l -2.89063,3.374997 c -1.01171,-0.874998 -1.89062,-1.441405 -2.64062,-1.703125 -0.75,-0.26953 -1.54297,-0.281249 -2.375,-0.03125 -0.83594,0.25 -1.65234,0.84375 -2.45313,1.78125 z m 0,0"
         style="display:inline;fill:#ffffff;fill-opacity:1;fill-rule:nonzero;stroke:none;stroke-width:1.10278"
         aria-label="r" />
    </g>
    <g
       id="g654">
      <path
         id="path652"
         d="m 0,0 c 3.605,0 6.416,1.968 8.434,5.904 2.015,3.937 3.285,7.384 3.806,10.345 0.5,2.831 0.217,4.709 -0.849,5.636 -1.065,0.927 -2.512,1.391 -4.338,1.391 -2.061,0 -3.807,-0.549 -5.242,-1.646 -1.434,-1.099 -2.85,-3.059 -4.25,-5.881 C -3.838,12.927 -4.803,10.003 -5.338,6.978 -5.795,4.375 -5.555,2.563 -4.611,1.537 -3.668,0.513 -2.131,0 0,0 m -1.338,-5.709 c -5.558,0 -9.574,1.411 -12.043,4.232 -2.469,2.823 -3.338,6.308 -2.605,10.456 0.871,4.944 3.527,9.506 7.966,13.687 4.44,4.18 9.918,6.271 16.436,6.271 5.209,0 9.096,-1.31 11.658,-3.929 2.565,-2.618 3.463,-6.1 2.697,-10.443 C 21.828,9.215 19.156,4.497 14.756,0.415 10.357,-3.668 4.994,-5.709 -1.338,-5.709"
         style="fill:#ffffff;fill-opacity:1;fill-rule:nonzero;stroke:none"
         transform="matrix(1.3333333,0,0,-1.3333333,306.26827,190.99533)"
         clip-path="url(#clipPath576)" />
      <path
         id="path653"
         d="M 0,0 5.666,13.508 -12.568,0 Z M 17.758,0.243 15.275,-5.661 H 8.074 L 4.877,-13.322 H -5.869 l 3.187,7.661 H -22.67 l 2.479,6.1 26.439,19.982 H 18.957 L 10.537,0.243 Z"
         style="display:inline;fill:#ffffff;fill-opacity:1;fill-rule:nonzero;stroke:none"
         transform="matrix(1.3333333,0,0,-1.3333333,255.02347,180.0968)"
         clip-path="url(#clipPath574)" />
      <path
         id="path654"
         d="m 0,0 9.574,1.243 c 0.823,-3.546 3.571,-5.318 8.243,-5.318 2.429,0 4.417,0.443 5.963,1.33 1.546,0.886 2.439,2.004 2.677,3.354 0.189,1.074 -0.082,1.989 -0.813,2.745 -0.731,0.756 -1.639,1.236 -2.724,1.44 -1.086,0.203 -2.762,0.305 -5.027,0.305 h -3.539 l 2.119,5.66 h 5.116 c 5.769,0 8.902,1.406 9.398,4.22 0.213,1.205 -0.254,2.168 -1.399,2.892 -1.146,0.724 -2.677,1.085 -4.592,1.085 -3.691,0 -6.601,-1.334 -8.729,-4.001 l -9.104,1.83 c 4.308,5.352 10.76,8.027 19.357,8.027 5.045,0 9.028,-0.829 11.947,-2.489 2.92,-1.659 4.135,-3.879 3.645,-6.66 -0.34,-1.919 -1.476,-3.624 -3.408,-5.111 -1.933,-1.489 -4.427,-2.42 -7.483,-2.794 2.431,-0.652 4.183,-1.679 5.255,-3.086 1.072,-1.407 1.466,-2.916 1.182,-4.526 -0.49,-2.782 -2.567,-5.185 -6.229,-7.21 -3.663,-2.025 -8.321,-3.038 -13.974,-3.038 -5.185,0 -9.318,0.943 -12.395,2.831 C 1.98,-5.385 0.295,-2.962 0,0"
         style="display:inline;fill:#ffffff;fill-opacity:1;fill-rule:nonzero;stroke:none"
         transform="matrix(1.3333333,0,0,-1.3333333,168.60613,185.464)"
         clip-path="url(#clipPath572)" />
    </g>
    <g
       id="g660"
       style="display:inline">
      <path
         id="path655"
         d="m 0,0 h -11.996 l 1.969,8.352 H 1.967 Z"
         style="fill:#e87722;fill-opacity:1;fill-rule:nonzero;stroke:#e87722;stroke-width:0.25;stroke-linecap:butt;stroke-linejoin:miter;stroke-miterlimit:4;stroke-dasharray:none;stroke-opacity:1"
         transform="matrix(1.3333333,0,0,-1.3333333,378.80733,139.99653)"
         clip-path="url(#clipPath566)" />
      <path
         id="path656"
         d="m 0,0 -2.246,-9.292 h 7.791 c 3.008,0 5.226,0.139 6.654,0.416 1.428,0.277 2.598,0.814 3.51,1.611 0.914,0.797 1.369,1.778 1.369,2.942 0,1.521 -0.699,2.622 -2.099,3.302 C 13.578,-0.34 11.244,0 7.98,0 Z m -3.537,-15.657 -3.522,-14.582 h -11.808 l 8.793,36.658 H 9.404 c 4.91,0 8.698,-0.372 11.358,-1.115 2.662,-0.743 4.758,-2.014 6.287,-3.814 1.529,-1.799 2.295,-3.692 2.295,-5.678 0,-2.131 -0.918,-4.164 -2.756,-6.097 -1.838,-1.934 -4.863,-3.285 -9.078,-4.055 l 6.551,-15.899 H 11.766 l -5.524,14.582 z"
         style="display:inline;fill:#e87722;fill-opacity:1;fill-rule:nonzero;stroke:#e87722;stroke-width:0.25;stroke-linecap:butt;stroke-linejoin:miter;stroke-miterlimit:4;stroke-dasharray:none;stroke-opacity:1"
         transform="matrix(1.3333333,0,0,-1.3333333,320.29427,99.6776)"
         clip-path="url(#clipPath564)" />
      <path
         id="path657"
         d="m 0,0 h -11.996 l 1.969,8.352 H 1.967 Z"
         style="display:inline;fill:#e87722;fill-opacity:1;fill-rule:nonzero;stroke:#e87722;stroke-width:0.24975;stroke-linecap:butt;stroke-linejoin:miter;stroke-miterlimit:4;stroke-dasharray:none;stroke-opacity:1"
         transform="matrix(1.3333333,0,0,-1.3333333,282.53907,139.99653)"
         clip-path="url(#clipPath562)" />
      <path
         id="path658"
         d="m 0,0 -2.247,-9.292 h 7.792 c 3.008,0 5.226,0.139 6.654,0.416 1.428,0.277 2.598,0.814 3.51,1.611 0.914,0.797 1.369,1.778 1.369,2.942 0,1.521 -0.699,2.622 -2.099,3.302 C 13.578,-0.34 11.244,0 7.98,0 Z m -3.538,-15.657 -3.52,-14.582 h -11.809 l 8.793,36.658 H 9.404 c 4.91,0 8.698,-0.372 11.358,-1.115 2.662,-0.743 4.758,-2.014 6.287,-3.814 1.529,-1.799 2.295,-3.692 2.295,-5.678 0,-2.131 -0.918,-4.164 -2.756,-6.097 -1.838,-1.934 -4.863,-3.285 -9.078,-4.055 l 6.551,-15.899 H 11.766 l -5.524,14.582 z"
         style="display:inline;fill:#e87722;fill-opacity:1;fill-rule:nonzero;stroke:#e87722;stroke-width:0.25;stroke-linecap:butt;stroke-linejoin:miter;stroke-miterlimit:4;stroke-dasharray:none;stroke-opacity:1"
         transform="matrix(1.3333333,0,0,-1.3333333,224.026,99.6776)"
         clip-path="url(#clipPath560)" />
      <path
         id="path659"
         d="m 0,0 h -11.995 l 1.968,8.352 H 1.967 Z"
         style="display:inline;fill:#e87722;fill-opacity:1;fill-rule:nonzero;stroke:#e87722;stroke-width:0.25;stroke-linecap:butt;stroke-linejoin:miter;stroke-miterlimit:4;stroke-dasharray:none;stroke-opacity:1"
         transform="matrix(1.3333333,0,0,-1.3333333,186.27013,139.99653)"
         clip-path="url(#clipPath558)" />
      <path
         id="path660"
         d="m 0,0 -4.782,-19.927 h -4.937 l -1.399,4.942 c -3.703,-3.438 -8.537,-5.157 -14.502,-5.157 -5.503,0 -10.163,1.366 -13.981,4.096 -3.818,2.73 -5.728,6.575 -5.728,11.534 0,6.302 2.43,11.588 7.29,15.859 4.859,4.269 11.108,6.405 18.744,6.405 5.554,0 10.073,-1.057 13.557,-3.17 3.484,-2.112 5.689,-5.075 6.615,-8.889 L -10.462,4.404 c -0.926,4.387 -3.896,6.58 -8.91,6.58 -3.086,0 -5.644,-0.838 -7.675,-2.511 -2.032,-1.674 -3.516,-3.925 -4.455,-6.754 -0.938,-2.829 -1.408,-5.184 -1.408,-7.063 0,-2.22 0.765,-4.082 2.295,-5.586 1.53,-1.504 4.017,-2.256 7.464,-2.256 5.09,-0.018 8.51,2.166 10.259,6.553 H -23.73 L -22.148,0 Z"
         style="display:inline;fill:#e87722;fill-opacity:1;fill-rule:nonzero;stroke:#e87722;stroke-width:0.25;stroke-linecap:butt;stroke-linejoin:miter;stroke-miterlimit:4;stroke-dasharray:none;stroke-opacity:1"
         transform="matrix(1.3333333,0,0,-1.3333333,165.0976,113.7856)"
         clip-path="url(#clipPath556)" />
    </g>
    <g
       id="g662"
       style="display:inline">
      <path
         id="path661"
         d="m 0,0 c -5.287,0.562 -10.822,0.852 -16.367,0.852 -52.926,0 -95.83,-26.656 -95.83,-59.538 0,-32.88 42.904,-59.536 95.83,-59.536 19.994,0 38.592,3.812 53.953,10.32 -10.197,-2.316 -21.215,-3.574 -32.76,-3.574 -51.254,0 -92.803,24.971 -92.803,55.775 0,29.85 38.92,54.222 87.977,55.701"
         style="display:inline;fill:#e87722;fill-opacity:1;fill-rule:nonzero;stroke:none"
         transform="matrix(1.3333333,0,0,-1.3333333,210.18493,56.376133)"
         clip-path="url(#clipPath568)" />
      <path
         id="path662"
         d="m 0,0 c -56.084,0 -97.708,-28.2 -97.708,-57.897 0,-29.7 45.464,-53.665 101.548,-53.665 h 0.082 c -50.753,0.352 -91.717,25.293 -91.717,55.878 0,29.851 38.839,54.205 87.895,55.684"
         style="fill:#ffffff;fill-opacity:1;fill-rule:nonzero;stroke:none"
         transform="matrix(1.3343159,-4.9244091e-4,-4.9319345e-4,-1.33228,210.04409,56.376495)"
         clip-path="url(#clipPath570)" />
    </g>
  </g>
</svg>
