<?xml version="1.0" encoding="UTF-8" standalone="no"?>
<!-- Created with Inkscape (http://www.inkscape.org/) -->

<svg
   version="1.1"
   id="svg1"
   width="321.05154"
   height="158.76534"
   viewBox="0 0 321.05154 158.76534"
   xmlns="http://www.w3.org/2000/svg"
   xmlns:svg="http://www.w3.org/2000/svg">
  <defs
     id="defs1">
    <clipPath
       clipPathUnits="userSpaceOnUse"
       id="clipPath556">
      <path
         d="M 0,206.516 H 333 V 0 H 0 Z"
         transform="translate(-123.8232,-121.1768)"
         id="path556" />
    </clipPath>
    <clipPath
       clipPathUnits="userSpaceOnUse"
       id="clipPath558">
      <path
         d="M 0,206.516 H 333 V 0 H 0 Z"
         transform="translate(-139.7026,-101.51861)"
         id="path558" />
    </clipPath>
    <clipPath
       clipPathUnits="userSpaceOnUse"
       id="clipPath560">
      <path
         d="M 0,206.516 H 333 V 0 H 0 Z"
         transform="translate(-168.0195,-131.7578)"
         id="path560" />
    </clipPath>
    <clipPath
       clipPathUnits="userSpaceOnUse"
       id="clipPath562">
      <path
         d="M 0,206.516 H 333 V 0 H 0 Z"
         transform="translate(-211.90431,-101.51861)"
         id="path562" />
    </clipPath>
    <clipPath
       clipPathUnits="userSpaceOnUse"
       id="clipPath564">
      <path
         d="M 0,206.516 H 333 V 0 H 0 Z"
         transform="translate(-240.22071,-131.7578)"
         id="path564" />
    </clipPath>
    <clipPath
       clipPathUnits="userSpaceOnUse"
       id="clipPath566">
      <path
         d="M 0,206.516 H 333 V 0 H 0 Z"
         transform="translate(-284.1055,-101.51861)"
         id="path566" />
    </clipPath>
    <clipPath
       clipPathUnits="userSpaceOnUse"
       id="clipPath568">
      <path
         d="M 0,206.516 H 333 V 0 H 0 Z"
         transform="translate(-157.6387,-164.2339)"
         id="path568" />
    </clipPath>
    <clipPath
       clipPathUnits="userSpaceOnUse"
       id="clipPath570">
      <path
         d="M 0,206.516 H 333 V 0 H 0 Z"
         transform="translate(-157.55661,-164.2163)"
         id="path570" />
    </clipPath>
    <clipPath
       clipPathUnits="userSpaceOnUse"
       id="clipPath572">
      <path
         d="M 0,206.516 H 333 V 0 H 0 Z"
         transform="translate(-126.4546,-67.418002)"
         id="path572" />
    </clipPath>
    <clipPath
       clipPathUnits="userSpaceOnUse"
       id="clipPath574">
      <path
         d="M 0,206.516 H 333 V 0 H 0 Z"
         transform="translate(-191.26761,-71.443402)"
         id="path574" />
    </clipPath>
    <clipPath
       clipPathUnits="userSpaceOnUse"
       id="clipPath576">
      <path
         d="M 0,206.516 H 333 V 0 H 0 Z"
         transform="translate(-229.70121,-63.269504)"
         id="path576" />
    </clipPath>
  </defs>
  <g
     id="g652"
     style="display:inline"
     transform="translate(-60.588933,-55.240129)">
    <g
       id="g643"
       style="display:inline">
      <path
         id="path641"
         d="m 0,0 c 3.605,0 6.416,1.968 8.434,5.904 2.015,3.937 3.285,7.384 3.806,10.345 0.5,2.831 0.217,4.709 -0.849,5.636 -1.065,0.927 -2.512,1.391 -4.338,1.391 -2.061,0 -3.807,-0.549 -5.242,-1.646 -1.434,-1.099 -2.85,-3.059 -4.25,-5.881 C -3.838,12.927 -4.803,10.003 -5.338,6.978 -5.795,4.375 -5.555,2.563 -4.611,1.537 -3.668,0.513 -2.131,0 0,0 m -1.338,-5.709 c -5.558,0 -9.574,1.411 -12.043,4.232 -2.469,2.823 -3.338,6.308 -2.605,10.456 0.871,4.944 3.527,9.506 7.966,13.687 4.44,4.18 9.918,6.271 16.436,6.271 5.209,0 9.096,-1.31 11.658,-3.929 2.565,-2.618 3.463,-6.1 2.697,-10.443 C 21.828,9.215 19.156,4.497 14.756,0.415 10.357,-3.668 4.994,-5.709 -1.338,-5.709"
         style="fill:#ffffff;fill-opacity:1;fill-rule:nonzero;stroke:none"
         transform="matrix(1.3333333,0,0,-1.3333333,306.26827,190.99533)"
         clip-path="url(#clipPath576)" />
      <path
         id="path642"
         d="M 0,0 5.666,13.508 -12.568,0 Z M 17.758,0.243 15.275,-5.661 H 8.074 L 4.877,-13.322 H -5.869 l 3.187,7.661 H -22.67 l 2.479,6.1 26.439,19.982 H 18.957 L 10.537,0.243 Z"
         style="display:inline;fill:#ffffff;fill-opacity:1;fill-rule:nonzero;stroke:none"
         transform="matrix(1.3333333,0,0,-1.3333333,255.02347,180.0968)"
         clip-path="url(#clipPath574)" />
      <path
         id="path643"
         d="m 0,0 9.574,1.243 c 0.823,-3.546 3.571,-5.318 8.243,-5.318 2.429,0 4.417,0.443 5.963,1.33 1.546,0.886 2.439,2.004 2.677,3.354 0.189,1.074 -0.082,1.989 -0.813,2.745 -0.731,0.756 -1.639,1.236 -2.724,1.44 -1.086,0.203 -2.762,0.305 -5.027,0.305 h -3.539 l 2.119,5.66 h 5.116 c 5.769,0 8.902,1.406 9.398,4.22 0.213,1.205 -0.254,2.168 -1.399,2.892 -1.146,0.724 -2.677,1.085 -4.592,1.085 -3.691,0 -6.601,-1.334 -8.729,-4.001 l -9.104,1.83 c 4.308,5.352 10.76,8.027 19.357,8.027 5.045,0 9.028,-0.829 11.947,-2.489 2.92,-1.659 4.135,-3.879 3.645,-6.66 -0.34,-1.919 -1.476,-3.624 -3.408,-5.111 -1.933,-1.489 -4.427,-2.42 -7.483,-2.794 2.431,-0.652 4.183,-1.679 5.255,-3.086 1.072,-1.407 1.466,-2.916 1.182,-4.526 -0.49,-2.782 -2.567,-5.185 -6.229,-7.21 -3.663,-2.025 -8.321,-3.038 -13.974,-3.038 -5.185,0 -9.318,0.943 -12.395,2.831 C 1.98,-5.385 0.295,-2.962 0,0"
         style="display:inline;fill:#ffffff;fill-opacity:1;fill-rule:nonzero;stroke:none"
         transform="matrix(1.3333333,0,0,-1.3333333,168.60613,185.464)"
         clip-path="url(#clipPath572)" />
    </g>
    <g
       id="g649"
       style="display:inline">
      <path
         id="path644"
         d="m 0,0 h -11.996 l 1.969,8.352 H 1.967 Z"
         style="fill:#e87722;fill-opacity:1;fill-rule:nonzero;stroke:#e87722;stroke-width:0.25;stroke-linecap:butt;stroke-linejoin:miter;stroke-miterlimit:4;stroke-dasharray:none;stroke-opacity:1"
         transform="matrix(1.3333333,0,0,-1.3333333,378.80733,139.99653)"
         clip-path="url(#clipPath566)" />
      <path
         id="path645"
         d="m 0,0 -2.246,-9.292 h 7.791 c 3.008,0 5.226,0.139 6.654,0.416 1.428,0.277 2.598,0.814 3.51,1.611 0.914,0.797 1.369,1.778 1.369,2.942 0,1.521 -0.699,2.622 -2.099,3.302 C 13.578,-0.34 11.244,0 7.98,0 Z m -3.537,-15.657 -3.522,-14.582 h -11.808 l 8.793,36.658 H 9.404 c 4.91,0 8.698,-0.372 11.358,-1.115 2.662,-0.743 4.758,-2.014 6.287,-3.814 1.529,-1.799 2.295,-3.692 2.295,-5.678 0,-2.131 -0.918,-4.164 -2.756,-6.097 -1.838,-1.934 -4.863,-3.285 -9.078,-4.055 l 6.551,-15.899 H 11.766 l -5.524,14.582 z"
         style="display:inline;fill:#e87722;fill-opacity:1;fill-rule:nonzero;stroke:#e87722;stroke-width:0.25;stroke-linecap:butt;stroke-linejoin:miter;stroke-miterlimit:4;stroke-dasharray:none;stroke-opacity:1"
         transform="matrix(1.3333333,0,0,-1.3333333,320.29427,99.6776)"
         clip-path="url(#clipPath564)" />
      <path
         id="path646"
         d="m 0,0 h -11.996 l 1.969,8.352 H 1.967 Z"
         style="display:inline;fill:#e87722;fill-opacity:1;fill-rule:nonzero;stroke:#e87722;stroke-width:0.24975;stroke-linecap:butt;stroke-linejoin:miter;stroke-miterlimit:4;stroke-dasharray:none;stroke-opacity:1"
         transform="matrix(1.3333333,0,0,-1.3333333,282.53907,139.99653)"
         clip-path="url(#clipPath562)" />
      <path
         id="path647"
         d="m 0,0 -2.247,-9.292 h 7.792 c 3.008,0 5.226,0.139 6.654,0.416 1.428,0.277 2.598,0.814 3.51,1.611 0.914,0.797 1.369,1.778 1.369,2.942 0,1.521 -0.699,2.622 -2.099,3.302 C 13.578,-0.34 11.244,0 7.98,0 Z m -3.538,-15.657 -3.52,-14.582 h -11.809 l 8.793,36.658 H 9.404 c 4.91,0 8.698,-0.372 11.358,-1.115 2.662,-0.743 4.758,-2.014 6.287,-3.814 1.529,-1.799 2.295,-3.692 2.295,-5.678 0,-2.131 -0.918,-4.164 -2.756,-6.097 -1.838,-1.934 -4.863,-3.285 -9.078,-4.055 l 6.551,-15.899 H 11.766 l -5.524,14.582 z"
         style="display:inline;fill:#e87722;fill-opacity:1;fill-rule:nonzero;stroke:#e87722;stroke-width:0.25;stroke-linecap:butt;stroke-linejoin:miter;stroke-miterlimit:4;stroke-dasharray:none;stroke-opacity:1"
         transform="matrix(1.3333333,0,0,-1.3333333,224.026,99.6776)"
         clip-path="url(#clipPath560)" />
      <path
         id="path648"
         d="m 0,0 h -11.995 l 1.968,8.352 H 1.967 Z"
         style="display:inline;fill:#e87722;fill-opacity:1;fill-rule:nonzero;stroke:#e87722;stroke-width:0.25;stroke-linecap:butt;stroke-linejoin:miter;stroke-miterlimit:4;stroke-dasharray:none;stroke-opacity:1"
         transform="matrix(1.3333333,0,0,-1.3333333,186.27013,139.99653)"
         clip-path="url(#clipPath558)" />
      <path
         id="path649"
         d="m 0,0 -4.782,-19.927 h -4.937 l -1.399,4.942 c -3.703,-3.438 -8.537,-5.157 -14.502,-5.157 -5.503,0 -10.163,1.366 -13.981,4.096 -3.818,2.73 -5.728,6.575 -5.728,11.534 0,6.302 2.43,11.588 7.29,15.859 4.859,4.269 11.108,6.405 18.744,6.405 5.554,0 10.073,-1.057 13.557,-3.17 3.484,-2.112 5.689,-5.075 6.615,-8.889 L -10.462,4.404 c -0.926,4.387 -3.896,6.58 -8.91,6.58 -3.086,0 -5.644,-0.838 -7.675,-2.511 -2.032,-1.674 -3.516,-3.925 -4.455,-6.754 -0.938,-2.829 -1.408,-5.184 -1.408,-7.063 0,-2.22 0.765,-4.082 2.295,-5.586 1.53,-1.504 4.017,-2.256 7.464,-2.256 5.09,-0.018 8.51,2.166 10.259,6.553 H -23.73 L -22.148,0 Z"
         style="display:inline;fill:#e87722;fill-opacity:1;fill-rule:nonzero;stroke:#e87722;stroke-width:0.25;stroke-linecap:butt;stroke-linejoin:miter;stroke-miterlimit:4;stroke-dasharray:none;stroke-opacity:1"
         transform="matrix(1.3333333,0,0,-1.3333333,165.0976,113.7856)"
         clip-path="url(#clipPath556)" />
    </g>
    <g
       id="g651"
       style="display:inline">
      <path
         id="path650"
         d="m 0,0 c -5.287,0.562 -10.822,0.852 -16.367,0.852 -52.926,0 -95.83,-26.656 -95.83,-59.538 0,-32.88 42.904,-59.536 95.83,-59.536 19.994,0 38.592,3.812 53.953,10.32 -10.197,-2.316 -21.215,-3.574 -32.76,-3.574 -51.254,0 -92.803,24.971 -92.803,55.775 0,29.85 38.92,54.222 87.977,55.701"
         style="display:inline;fill:#e87722;fill-opacity:1;fill-rule:nonzero;stroke:none"
         transform="matrix(1.3333333,0,0,-1.3333333,210.18493,56.376133)"
         clip-path="url(#clipPath568)" />
      <path
         id="path651"
         d="m 0,0 c -56.084,0 -97.708,-28.2 -97.708,-57.897 0,-29.7 45.464,-53.665 101.548,-53.665 h 0.082 c -50.753,0.352 -91.717,25.293 -91.717,55.878 0,29.851 38.839,54.205 87.895,55.684"
         style="fill:#ffffff;fill-opacity:1;fill-rule:nonzero;stroke:none"
         transform="matrix(1.3343159,-4.9244091e-4,-4.9319345e-4,-1.33228,210.04409,56.376495)"
         clip-path="url(#clipPath570)" />
    </g>
  </g>
</svg>
